<?xml version="1.0" standalone="no"?>
<!DOCTYPE svg PUBLIC "-//W3C//DTD SVG 20010904//EN"
 "http://www.w3.org/TR/2001/REC-SVG-20010904/DTD/svg10.dtd">
<svg version="1.0" xmlns="http://www.w3.org/2000/svg"
 width="721.000000pt" height="770.000000pt" viewBox="0 0 721.000000 770.000000"
 preserveAspectRatio="xMidYMid meet">
<metadata>
Created by potrace 1.16, written by Peter Selinger 2001-2019
</metadata>
<g transform="translate(0.000000,770.000000) scale(0.100000,-0.100000)"
fill="#000000" stroke="none">
<path d="M0 3850 l0 -3850 3605 0 3605 0 0 3850 0 3850 -3605 0 -3605 0 0
-3850z m7040 3670 c7 -12 9 -88 8 -202 l-3 -183 -755 0 c-415 0 -801 1 -857 3
l-103 3 0 34 c0 26 -6 39 -27 52 -25 16 -68 19 -463 24 -657 9 -2913 5 -2932
-5 -12 -5 -18 -20 -18 -40 0 -18 -5 -37 -12 -44 -9 -9 -204 -11 -842 -6 -457
3 -841 7 -853 10 -23 4 -23 6 -23 177 0 121 4 177 12 185 9 9 786 12 3435 12
3399 0 3422 0 3433 -20z m-1817 -319 c26 -4 49 -10 51 -12 3 -2 6 -76 8 -164
l3 -160 -82 4 c-46 1 -84 -1 -84 -5 -1 -5 -3 -47 -5 -93 l-3 -83 84 4 c65 3
85 1 90 -9 8 -21 -7 -283 -17 -289 -4 -3 -52 -1 -105 5 -138 14 -3133 28
-3200 15 -31 -6 -32 -5 -39 41 -3 26 -5 205 -2 397 4 288 7 351 19 360 17 11
3207 1 3282 -11z m-4972 -108 c28 -16 203 -104 388 -198 216 -110 336 -175
336 -185 0 -13 -125 -83 -184 -104 -9 -3 -104 -51 -211 -107 -277 -144 -364
-187 -394 -195 l-26 -6 0 411 c0 469 -8 435 91 384z m1620 11 c9 -5 11 -104 7
-385 -4 -258 -2 -381 5 -388 6 -6 24 -11 39 -11 15 0 28 -4 28 -10 0 -13 -26
-13 -70 0 -19 6 -36 6 -38 2 -1 -4 -37 -7 -80 -5 -42 1 -257 4 -476 7 -276 3
-401 8 -406 16 -5 7 -11 6 -20 -5 -16 -19 -36 -19 -44 1 -5 14 -8 14 -21 0
-20 -19 -136 -12 -148 9 -4 8 -14 12 -22 9 -8 -4 -12 -10 -9 -15 3 -5 -53 -9
-130 -9 -75 0 -136 2 -136 4 0 2 28 18 63 35 34 18 89 46 122 64 117 63 141
75 205 108 36 18 110 55 165 82 138 67 169 84 172 94 3 9 -85 59 -241 135
-264 128 -510 256 -514 267 -3 9 181 10 767 7 424 -2 776 -8 782 -12z m4999
-24 c8 -5 12 -11 9 -14 -4 -5 -595 -295 -624 -307 -34 -14 -125 -72 -125 -80
0 -5 12 -14 28 -19 15 -6 34 -14 42 -19 8 -5 44 -25 80 -43 159 -83 308 -163
342 -185 21 -12 40 -23 42 -23 3 0 22 -11 42 -25 20 -14 45 -25 55 -25 11 0
19 -4 19 -9 0 -5 14 -14 30 -21 17 -7 28 -15 25 -18 -3 -3 -87 -4 -188 -2
-100 2 -215 2 -254 1 -61 -1 -73 1 -73 14 0 9 -5 13 -10 10 -6 -4 -8 -11 -5
-16 7 -11 22 -10 -160 -10 -635 0 -887 2 -879 10 5 5 20 11 34 13 l25 3 3 375
c1 206 4 381 7 388 4 10 153 12 763 12 417 -1 765 -6 772 -10z m180 -3444 c0
-3200 -1 -3455 -17 -3467 -13 -12 -550 -14 -3423 -14 -3337 0 -3408 0 -3429
19 l-21 19 0 3033 0 3033 33 6 c17 3 91 5 162 3 l130 -3 -2 -1005 c-1 -553 -6
-1340 -9 -1750 -4 -410 -7 -979 -8 -1265 l-1 -520 33 -111 c58 -200 148 -356
288 -504 161 -168 331 -289 599 -425 164 -84 489 -198 710 -250 39 -10 88 -23
110 -30 22 -7 68 -15 102 -19 35 -4 79 -14 98 -21 19 -8 53 -15 75 -15 22 0
51 -6 63 -14 12 -7 49 -14 82 -15 33 0 85 -6 115 -12 30 -6 100 -14 155 -18
55 -5 116 -11 135 -15 110 -20 609 -30 720 -15 41 6 161 14 265 18 105 5 255
18 335 30 79 11 160 21 180 21 19 1 46 7 60 15 14 8 47 14 73 15 27 0 56 4 66
9 9 5 66 15 127 22 60 6 123 17 139 24 53 21 101 35 123 35 11 0 23 4 26 9 3
4 28 11 55 14 60 7 218 54 226 68 4 5 16 9 29 9 12 0 31 6 41 14 11 8 25 12
31 9 7 -2 15 0 19 6 3 6 14 11 25 11 10 0 20 6 23 14 3 8 19 17 36 21 16 3 40
14 53 23 13 10 41 23 63 31 56 18 128 53 140 66 6 7 51 40 100 74 109 74 122
86 207 183 123 142 182 237 242 391 73 187 75 209 81 863 18 2049 19 2377 9
3284 -4 458 -3 653 5 673 l11 27 132 0 c192 0 235 7 242 37 8 31 -31 66 -98
87 -28 9 -57 23 -65 31 -43 40 -81 64 -129 80 -29 9 -56 23 -59 31 -3 8 -12
14 -20 14 -25 0 -318 150 -318 163 0 7 164 94 365 194 378 189 426 212 448
212 9 1 12 -696 12 -3453z m-1802 3192 c17 -17 15 -83 -2 -97 -8 -7 -32 -11
-53 -9 -37 3 -38 4 -41 46 -2 24 2 50 9 58 14 17 70 19 87 2z m-2530 -469 c-5
-14 -619 -13 -664 1 -18 5 106 9 319 9 251 1 348 -2 345 -10z m1659 5 l52 -7
3 -40 c5 -72 -23 -70 999 -76 735 -5 899 -8 912 -20 24 -19 14 -28 -40 -36
-27 -3 -70 -12 -98 -19 -68 -18 -147 -32 -290 -51 -66 -9 -129 -20 -140 -25
-11 -4 -60 -13 -110 -19 -49 -6 -153 -20 -230 -31 -77 -11 -221 -27 -320 -35
-99 -8 -214 -19 -255 -25 -41 -6 -183 -15 -315 -21 -132 -5 -258 -12 -280 -15
-95 -12 -872 -16 -1065 -5 -113 6 -297 16 -410 21 -216 11 -527 37 -820 70
-96 10 -206 22 -245 25 -38 4 -86 10 -105 16 -20 5 -83 15 -140 23 -228 32
-383 57 -428 67 -26 6 -85 17 -132 24 -113 17 -290 52 -313 61 -14 5 -15 9 -6
15 7 4 498 5 1091 3 l1078 -5 0 49 c0 27 3 52 7 55 8 9 1530 9 1600 1z m225
-4 c39 0 69 -2 66 -5 -10 -11 -173 -22 -183 -13 -12 11 14 30 33 23 8 -3 46
-5 84 -5z m148 -9 c0 -5 -11 -8 -25 -8 -14 0 -28 3 -31 8 -3 5 9 9 25 9 17 0
31 -4 31 -9z m120 5 c0 -11 -19 -15 -25 -6 -3 5 1 10 9 10 9 0 16 -2 16 -4z
m165 -6 c-3 -5 -26 -10 -51 -10 -24 0 -44 5 -44 10 0 6 23 10 51 10 31 0 48
-4 44 -10z m75 0 c0 -5 -7 -10 -15 -10 -8 0 -15 5 -15 10 0 6 7 10 15 10 8 0
15 -4 15 -10z m-4435 -165 c38 -4 83 -14 100 -21 17 -7 60 -15 95 -19 36 -3
85 -10 110 -16 47 -9 58 -11 210 -33 52 -8 142 -23 199 -35 57 -12 120 -21
140 -21 20 0 74 -7 121 -15 47 -8 145 -19 217 -25 73 -6 138 -13 145 -15 27
-10 523 -52 898 -75 270 -18 1051 -24 1320 -11 463 23 956 62 1093 87 42 8 92
14 110 13 l32 -1 -38 -9 c-46 -11 -214 -33 -442 -60 -93 -10 -177 -21 -186
-24 -15 -5 -44 -7 -244 -20 -49 -3 -130 -10 -180 -16 -190 -20 -848 -30 -1195
-18 -184 6 -351 13 -370 15 -19 2 -55 6 -80 8 -25 3 -130 10 -235 15 -104 6
-219 15 -255 21 -36 5 -108 14 -160 20 -52 6 -142 17 -200 25 -58 8 -134 17
-170 21 -81 7 -86 8 -245 34 -166 27 -236 37 -305 45 -30 4 -64 11 -75 16 -11
5 -56 16 -100 23 -44 8 -117 22 -163 31 -54 12 -86 15 -93 8 -6 -6 -11 -207
-13 -529 -8 -1259 -18 -2486 -21 -2516 -1 -18 -3 -271 -4 -563 -2 -500 3 -627
27 -671 5 -11 12 -35 15 -54 4 -31 13 -55 48 -135 5 -11 22 -42 38 -70 17 -27
36 -64 45 -82 8 -18 24 -38 35 -45 12 -7 21 -17 21 -21 0 -5 10 -23 22 -40 13
-18 22 -38 20 -44 -2 -7 3 -10 10 -8 7 3 51 -33 98 -81 47 -47 108 -98 136
-114 28 -16 59 -39 69 -50 10 -11 23 -20 28 -20 6 0 18 -6 26 -14 9 -7 50 -31
91 -53 41 -23 89 -48 105 -57 17 -9 53 -26 80 -39 28 -13 59 -28 70 -34 32
-17 147 -62 180 -69 17 -4 35 -10 40 -15 6 -4 29 -12 50 -18 22 -5 58 -14 80
-20 22 -5 41 -14 43 -20 2 -5 10 -7 17 -4 8 3 38 -2 67 -11 84 -25 202 -52
353 -80 238 -44 317 -56 390 -61 39 -3 104 -9 145 -15 241 -31 512 -36 790
-15 30 2 96 6 145 10 50 3 124 8 165 11 41 3 116 12 165 19 50 8 137 21 195
30 220 34 342 55 352 61 6 4 38 13 72 20 34 7 86 19 116 28 30 8 66 17 80 20
51 11 145 38 155 46 6 4 42 19 80 33 115 42 218 87 236 103 8 7 19 14 23 14
10 0 138 81 160 102 11 10 24 18 28 18 20 0 148 107 201 168 60 70 157 204
183 255 20 37 56 148 91 278 l28 104 -3 1590 c-1 875 -4 1830 -6 2123 l-4 533
21 9 c27 10 160 30 165 25 4 -4 5 -207 2 -495 0 -85 -1 -254 -1 -375 0 -121 0
-263 -1 -315 0 -52 0 -151 0 -220 1 -69 0 -397 -2 -730 -2 -333 -6 -1001 -8
-1485 -4 -860 -5 -882 -26 -970 -12 -49 -26 -99 -31 -110 -5 -11 -17 -42 -26
-70 -26 -83 -143 -276 -220 -364 -123 -141 -301 -260 -570 -381 -144 -65 -370
-141 -475 -160 -25 -5 -56 -13 -70 -18 -24 -9 -250 -54 -330 -66 -19 -2 -71
-11 -115 -19 -44 -8 -114 -18 -155 -22 -41 -3 -91 -11 -110 -15 -19 -5 -78
-12 -130 -15 -52 -3 -102 -7 -110 -10 -8 -2 -103 -11 -210 -20 -254 -20 -498
-19 -740 5 -107 11 -224 22 -260 25 -36 3 -87 10 -115 15 -27 5 -88 14 -135
20 -127 16 -268 40 -335 57 -33 9 -89 21 -125 29 -68 14 -167 40 -260 69 -30
9 -80 23 -111 30 -83 19 -129 35 -174 60 -22 12 -51 26 -65 30 -58 17 -382
185 -417 216 -10 9 -29 22 -43 29 -102 53 -333 271 -405 384 -11 17 -26 40
-33 51 -6 11 -16 30 -22 43 -5 12 -19 35 -29 50 -27 36 -75 178 -96 282 -15
73 -17 139 -15 465 1 209 3 466 5 570 3 172 7 773 20 2789 3 505 7 671 16 677
7 4 22 4 34 -1 11 -4 52 -11 90 -15z m175 -111 c36 -12 338 -64 370 -64 19 0
51 -5 70 -10 20 -5 101 -19 180 -30 155 -21 301 -42 415 -60 39 -6 122 -14
187 -19 64 -5 120 -11 126 -15 13 -8 488 -45 722 -56 251 -12 1044 -12 1265 0
268 14 482 29 580 41 50 6 133 14 185 19 52 5 140 16 195 24 55 9 212 32 349
52 138 19 252 37 256 39 3 2 44 9 90 15 47 6 112 18 145 25 211 48 258 56 264
46 4 -5 8 -936 9 -2068 3 -2050 2 -2144 -30 -2243 -6 -19 -12 -41 -15 -49 -3
-11 -8 -10 -28 3 -41 27 -88 21 -124 -16 -17 -17 -31 -36 -31 -41 0 -4 -10 -7
-22 -5 -35 5 -34 35 1 56 36 20 40 37 10 45 -16 4 -30 -3 -51 -26 -24 -25 -29
-37 -25 -64 3 -18 2 -35 -3 -38 -8 -5 -100 -141 -100 -149 0 -2 37 -19 83 -37
45 -18 92 -39 105 -47 22 -14 22 -16 6 -41 -24 -38 -66 -81 -78 -81 -13 1
-136 115 -136 125 0 5 7 13 17 20 10 8 14 19 10 30 -7 16 -9 16 -35 -1 -56
-36 -112 -89 -112 -105 0 -10 -11 -19 -28 -22 -42 -9 -132 -67 -132 -86 0 -10
5 -22 12 -29 18 -18 3 -26 -29 -15 -53 18 -133 -14 -155 -62 -15 -33 -2 -73
36 -111 39 -39 76 -50 122 -36 19 5 34 7 34 4 0 -13 -174 -92 -265 -121 -180
-58 -401 -120 -455 -127 -30 -3 -65 -10 -77 -15 -33 -12 -393 -69 -439 -69 -8
0 -14 5 -14 12 0 6 -14 34 -32 62 -73 119 -79 126 -110 126 -16 0 -30 -6 -33
-12 -2 -7 -15 -52 -30 -100 -14 -49 -31 -88 -38 -88 -12 0 -67 53 -67 64 0 3
9 15 20 26 26 26 25 48 -2 77 -23 24 -71 30 -151 16 l-39 -6 7 -101 c4 -56 8
-105 9 -111 0 -5 -20 -12 -46 -15 -53 -6 -55 -5 -33 27 11 15 16 48 17 103 1
84 -8 107 -37 96 -15 -5 -16 -16 -10 -76 8 -82 -1 -100 -51 -100 -43 0 -54 21
-54 104 0 63 -1 66 -24 66 -30 0 -34 -14 -25 -98 4 -41 14 -74 28 -93 11 -15
21 -31 21 -34 0 -3 -36 -5 -80 -5 l-81 0 3 98 3 97 33 3 c18 2 32 9 32 16 0
15 -143 32 -173 20 -27 -10 -14 -29 21 -32 39 -4 45 -21 40 -123 l-3 -74 -32
-3 c-26 -3 -32 1 -35 20 -3 20 -11 24 -65 32 -70 10 -67 3 -63 112 2 62 -11
87 -32 66 -6 -6 -13 -54 -17 -109 l-6 -98 -28 -3 c-16 -2 -36 -1 -44 2 -13 6
-13 9 2 32 18 28 36 172 23 181 -21 12 -36 -9 -43 -63 -10 -86 -20 -104 -52
-104 -51 0 -58 12 -58 102 0 66 -3 83 -15 83 -20 0 -32 -73 -27 -154 l5 -63
-40 5 c-47 6 -56 13 -40 29 7 7 12 20 12 30 0 23 -37 24 -61 2 -16 -14 -23
-15 -48 -4 -34 14 -46 39 -36 78 15 60 73 82 110 42 28 -31 63 -22 49 13 -9
24 -60 40 -110 34 -66 -7 -99 -42 -99 -105 0 -26 4 -55 9 -64 7 -15 3 -18 -29
-18 -52 0 -126 20 -132 37 -3 7 0 50 7 94 9 59 10 83 1 92 -15 15 -20 7 -34
-49 -7 -26 -17 -49 -23 -51 -5 -2 -23 24 -39 58 -28 58 -56 86 -74 75 -4 -3
-16 -40 -25 -83 -10 -43 -19 -84 -22 -90 -4 -15 -33 -17 -53 -4 -12 7 -10 14
7 36 24 31 37 84 27 114 -3 11 -20 35 -38 52 -28 29 -29 32 -14 44 22 16 22
25 -2 25 -11 0 -26 -8 -33 -18 -7 -10 -33 -25 -57 -33 -54 -17 -82 -52 -88
-113 -6 -45 -18 -57 -40 -35 -8 8 -3 33 19 92 30 82 30 111 2 105 -10 -2 -28
-33 -46 -83 -34 -93 -39 -99 -67 -90 -18 5 -19 10 -10 27 17 31 -2 43 -44 27
-31 -11 -39 -10 -62 5 -24 16 -27 23 -21 54 6 41 47 82 83 82 12 0 32 -13 46
-31 17 -21 30 -30 41 -26 40 16 -2 70 -68 88 -57 15 -109 -10 -136 -66 -11
-23 -20 -51 -20 -63 0 -23 -15 -28 -38 -13 -11 7 -12 25 -1 104 10 79 10 99
-1 112 -17 20 -24 17 -126 -51 -55 -37 -89 -54 -100 -50 -16 6 -16 8 1 26 24
27 11 41 -33 34 -30 -5 -41 -2 -57 16 -18 20 -18 22 -1 53 26 48 63 72 94 61
14 -5 29 -17 33 -27 5 -9 13 -25 18 -35 4 -9 16 -18 25 -20 12 -3 16 4 16 32
0 31 -6 40 -42 66 -25 18 -53 30 -72 30 -45 0 -100 -42 -126 -95 l-22 -45 -29
17 c-16 10 -29 20 -29 24 0 3 26 24 58 47 74 52 106 87 99 106 -9 22 -18 20
-52 -12 -73 -68 -125 -88 -153 -60 -23 23 -11 47 50 101 59 52 62 56 46 74
-22 25 -76 144 -103 228 -13 40 -29 71 -38 73 -19 4 -208 -35 -218 -45 -10
-10 20 -134 37 -153 26 -27 36 2 18 53 -13 39 -14 50 -3 63 22 27 53 13 69
-33 10 -30 20 -43 33 -43 17 0 18 5 12 33 -13 59 -11 72 12 75 25 4 37 -15 47
-71 l7 -38 -85 -40 c-48 -22 -86 -44 -86 -50 0 -20 32 -72 58 -95 18 -15 40
-23 64 -24 56 0 56 -8 1 -80 -8 -9 -155 159 -209 239 -69 101 -135 255 -160
371 -18 79 -19 132 -16 730 2 355 5 688 7 740 1 52 6 475 9 940 11 1467 14
1749 21 1760 6 9 34 7 75 -6z m4810 -54 c-14 -4 -38 -8 -55 -8 -29 0 -29 0 -5
8 14 4 39 8 55 8 29 0 29 0 5 -8z m497 -4336 c8 -22 -8 -46 -40 -62 -39 -19
-35 -42 8 -42 42 0 49 -25 11 -40 -14 -5 -35 -27 -48 -49 -23 -41 -47 -51 -78
-31 -13 8 -12 15 8 49 27 48 28 61 4 61 -11 0 -27 -14 -38 -35 -20 -37 -36
-48 -59 -39 -21 8 -19 19 10 68 21 37 32 45 65 50 29 4 51 17 78 45 40 42 69
51 79 25z m-4941 -176 c16 -32 16 -32 -15 -60 -43 -39 -101 -39 -131 -1 l-21
28 21 17 c12 10 30 18 39 18 9 1 27 7 41 15 37 21 48 18 66 -17z m4634 -198
c38 -30 70 -60 70 -66 0 -6 -11 -21 -25 -34 -24 -23 -25 -23 -76 -7 -28 10
-58 17 -66 17 -10 0 -12 8 -8 33 5 25 2 37 -15 52 l-21 19 28 22 c15 13 31 22
35 21 4 -1 39 -27 78 -57z m-150 -47 c0 -20 -38 -53 -60 -53 -10 0 -23 7 -30
15 -11 13 -9 19 11 33 46 33 79 35 79 5z m62 -89 c32 -9 58 -20 58 -25 0 -10
-70 -59 -84 -59 -9 0 -23 15 -53 58 -14 20 -14 25 -2 33 18 11 13 12 81 -7z
m-231 -33 c42 -42 39 -85 -8 -110 -28 -14 -64 -1 -92 35 -27 35 -27 49 4 79
32 33 60 31 96 -4z m133 -39 c15 -17 25 -35 21 -41 -6 -11 -98 -61 -110 -61
-4 0 3 14 16 31 17 24 20 40 16 74 -4 39 -2 43 12 36 9 -5 29 -23 45 -39z
m-4004 -17 c0 -30 -24 -43 -46 -24 -14 12 -14 15 6 31 30 24 40 23 40 -7z
m-45 -69 c25 -11 33 -19 29 -31 -7 -18 -35 -12 -71 14 -44 32 -18 42 42 17z
m633 -93 c19 -26 14 -59 -14 -92 -32 -38 -71 -41 -103 -7 -21 22 -22 28 -11
60 20 60 94 83 128 39z m172 -146 l18 -47 -26 0 c-44 0 -55 13 -47 51 14 66
29 64 55 -4z m1559 20 c17 -21 -7 -37 -56 -37 -35 0 -43 3 -43 18 0 10 3 22 7
25 12 12 80 7 92 -6z m231 -38 c0 -14 -7 -19 -30 -19 -24 0 -28 3 -23 18 12
33 25 43 39 31 8 -6 14 -20 14 -30z m-241 -74 c17 -20 31 -42 31 -49 0 -17
-88 -26 -99 -11 -9 13 -13 73 -6 86 12 19 44 8 74 -26z m283 0 c6 -14 9 -27 7
-29 -2 -3 -32 -8 -67 -12 -49 -5 -62 -4 -62 7 1 33 23 46 103 58 4 0 13 -10
19 -24z"/>
<path d="M2303 6883 c-13 -2 -32 -16 -43 -30 -28 -36 -26 -85 6 -122 22 -27
32 -31 74 -31 66 0 110 35 110 89 0 48 -22 78 -68 91 -38 10 -41 10 -79 3z
m85 -39 c26 -18 30 -74 6 -98 -16 -16 -71 -21 -90 -8 -23 15 -34 50 -25 76 18
45 68 59 109 30z"/>
<path d="M2525 6883 c-31 -8 -45 -23 -45 -49 0 -27 9 -33 70 -55 49 -17 64
-43 29 -54 -14 -5 -31 0 -51 15 -30 22 -63 20 -56 -3 2 -6 21 -20 42 -31 32
-16 44 -17 77 -7 74 22 75 80 0 107 -58 22 -68 31 -53 46 9 9 20 8 48 -5 38
-19 57 -15 48 8 -5 12 -68 37 -84 34 -3 -1 -14 -4 -25 -6z"/>
<path d="M1952 6793 l3 -88 54 -3 c70 -4 106 11 126 55 14 29 15 40 4 64 -19
46 -45 59 -122 59 l-68 0 3 -87z m138 38 c27 -51 -8 -104 -63 -99 -30 3 -32 6
-35 47 -5 62 1 71 47 71 30 0 43 -5 51 -19z"/>
<path d="M2160 6791 c0 -84 2 -91 20 -91 23 0 32 39 28 120 -3 48 -6 55 -25
58 -22 3 -23 1 -23 -87z"/>
<path d="M2776 6827 c-13 -101 29 -151 113 -132 47 10 61 34 63 108 2 70 -2
83 -27 74 -11 -5 -15 -22 -15 -71 0 -56 -3 -67 -21 -77 -16 -8 -28 -8 -45 0
-20 9 -23 18 -26 78 -2 53 -7 68 -19 71 -13 2 -18 -9 -23 -51z"/>
<path d="M2994 6867 c-3 -8 -4 -47 -2 -88 2 -61 6 -74 21 -77 13 -3 17 3 17
26 0 36 9 62 21 62 4 0 22 -20 39 -45 22 -33 38 -45 55 -45 25 0 25 1 25 91 0
81 -2 90 -17 87 -12 -2 -20 -16 -23 -42 -3 -22 -10 -41 -16 -43 -6 -2 -25 17
-43 42 -32 45 -66 59 -77 32z"/>
<path d="M3212 6793 c3 -74 6 -88 21 -91 15 -3 17 6 17 87 0 85 -1 91 -20 91
-20 0 -21 -5 -18 -87z"/>
<path d="M3325 6868 c-32 -18 -44 -40 -45 -80 0 -52 33 -88 87 -95 108 -14
175 87 104 158 -25 24 -37 29 -78 29 -26 0 -57 -6 -68 -12z m120 -44 c46 -71
-52 -145 -104 -78 -25 32 -26 52 -5 82 23 33 86 31 109 -4z"/>
<path d="M3536 6864 c-3 -9 -6 -49 -6 -89 0 -53 4 -74 14 -78 20 -8 26 1 26
37 0 17 4 38 10 46 7 12 13 9 32 -15 53 -68 65 -78 82 -72 14 6 16 19 14 94
-2 70 -6 88 -18 88 -10 0 -16 -13 -18 -42 -4 -50 -21 -56 -47 -17 -39 60 -77
80 -89 48z"/>
<path d="M3851 6866 c-8 -9 -11 -42 -9 -93 l3 -78 73 0 c85 0 101 18 22 25
l-55 5 -2 69 c-1 73 -12 96 -32 72z"/>
<path d="M4362 6872 l-43 -3 3 -87 3 -87 79 0 c55 0 81 4 84 13 3 9 -13 12
-58 12 -58 0 -61 1 -58 23 2 18 11 23 51 27 61 6 61 24 0 28 -45 3 -68 17 -57
34 3 4 30 8 60 8 41 0 54 4 54 15 0 8 -6 15 -12 16 -7 0 -24 1 -38 2 -14 1
-44 1 -68 -1z"/>
<path d="M4529 6863 c-6 -6 -9 -46 -7 -89 2 -62 6 -79 19 -82 10 -2 18 9 25
34 5 21 15 39 22 42 7 2 29 -15 50 -37 54 -59 80 -55 45 7 -17 29 -17 31 2 52
15 16 17 26 9 48 -9 25 -14 27 -83 32 -48 3 -76 1 -82 -7z m127 -34 c10 -16
-16 -30 -51 -27 -19 2 -31 9 -33 21 -3 14 4 17 37 17 22 0 43 -5 47 -11z"/>
<path d="M4027 6863 c-2 -5 -3 -44 -3 -88 1 -64 4 -80 16 -80 12 0 16 18 18
88 2 71 0 87 -12 87 -8 0 -16 -3 -19 -7z"/>
<path d="M4112 6783 l3 -88 60 -3 c34 -1 71 3 85 11 28 14 38 51 20 72 -8 10
-8 19 -1 33 7 14 6 25 -5 40 -13 19 -25 22 -90 22 l-75 0 3 -87z m131 50 c13
-13 -16 -33 -49 -33 -34 0 -50 12 -39 30 7 11 78 14 88 3z m2 -88 c0 -16 -8
-21 -39 -23 -43 -4 -62 8 -52 33 4 12 16 15 48 13 35 -2 43 -7 43 -23z"/>
<path d="M4732 6858 c3 -7 18 -15 34 -18 29 -5 29 -6 32 -78 2 -63 5 -73 20
-70 13 3 18 18 22 73 5 68 6 70 34 75 16 3 31 11 34 18 3 9 -19 12 -88 12 -69
0 -91 -3 -88 -12z"/>
<path d="M4942 6823 c-11 -27 -27 -65 -36 -86 -15 -35 -15 -38 1 -44 11 -4 21
1 31 15 20 30 91 32 99 2 5 -18 43 -30 43 -12 0 11 -39 111 -56 144 -24 46
-57 38 -82 -19z m63 -44 c0 -7 -8 -15 -17 -17 -18 -3 -25 18 -11 32 10 10 28
1 28 -15z"/>
<path d="M1025 6340 c3 -5 11 -10 16 -10 6 0 7 5 4 10 -3 6 -11 10 -16 10 -6
0 -7 -4 -4 -10z"/>
<path d="M1258 6333 c7 -3 16 -2 19 1 4 3 -2 6 -13 5 -11 0 -14 -3 -6 -6z"/>
<path d="M5515 6310 c-3 -5 -1 -10 4 -10 6 0 11 5 11 10 0 6 -2 10 -4 10 -3 0
-8 -4 -11 -10z"/>
<path d="M5783 5934 c-45 -23 -64 -47 -70 -91 -11 -81 60 -163 140 -163 72 0
137 52 137 110 0 114 -111 191 -207 144z m117 -65 c53 -59 45 -130 -18 -144
-40 -8 -79 9 -102 47 -28 46 -26 82 6 107 39 31 80 27 114 -10z"/>
<path d="M1362 5865 c-60 -51 -78 -116 -47 -175 32 -61 140 -82 184 -36 21 22
21 25 6 34 -12 6 -27 5 -47 -5 -51 -26 -100 -2 -100 49 0 104 105 159 147 78
9 -18 23 -30 35 -30 29 0 25 34 -8 71 -24 27 -38 33 -83 37 -49 4 -59 1 -87
-23z"/>
<path d="M5485 5801 c-3 -6 8 -38 24 -73 16 -35 38 -84 49 -110 12 -27 27 -48
34 -48 25 0 161 55 165 66 7 20 -25 23 -78 8 -28 -9 -57 -13 -65 -10 -8 3 -24
27 -35 53 -48 114 -53 123 -70 123 -10 0 -20 -4 -24 -9z"/>
<path d="M1719 5774 c-18 -50 -59 -195 -59 -214 0 -17 21 -25 123 -49 63 -15
77 -14 77 4 0 17 -35 33 -87 42 -45 8 -59 27 -44 60 11 23 16 25 54 20 23 -4
55 -9 70 -13 25 -6 28 -4 25 12 -2 14 -19 23 -61 33 -54 13 -58 15 -55 40 3
29 11 30 106 16 43 -6 52 -5 52 7 0 10 -26 22 -77 36 -43 11 -86 24 -95 27
-13 5 -20 0 -29 -21z"/>
<path d="M5282 5741 c-11 -7 -7 -30 23 -122 20 -63 40 -118 45 -123 5 -5 27
-3 52 7 24 8 57 18 75 22 38 8 61 31 46 46 -7 7 -29 5 -69 -5 -71 -19 -74 -17
-105 89 -27 91 -38 105 -67 86z"/>
<path d="M5188 5723 c-22 -5 -22 1 3 -86 11 -39 26 -92 32 -117 8 -30 18 -46
31 -48 30 -6 35 10 21 63 -51 185 -56 195 -87 188z"/>
<path d="M2114 5685 c-44 -18 -71 -58 -79 -116 -6 -44 -4 -55 19 -89 21 -32
33 -40 70 -45 56 -9 99 1 122 26 16 18 17 21 1 36 -15 16 -18 15 -40 -5 -23
-22 -71 -29 -94 -14 -23 15 -34 62 -23 101 20 73 79 95 128 48 33 -31 58 -23
48 16 -10 40 -99 65 -152 42z"/>
<path d="M5005 5683 c-88 -23 -123 -142 -64 -217 25 -32 85 -51 134 -42 43 8
85 46 85 76 0 31 -35 25 -60 -10 -43 -60 -120 -26 -135 59 -6 36 -4 46 16 67
23 25 82 34 94 14 9 -15 55 -12 55 3 0 34 -75 63 -125 50z"/>
<path d="M2354 5538 c-84 -137 -79 -125 -53 -133 16 -5 27 -1 43 19 20 25 24
26 79 20 49 -6 58 -10 63 -31 6 -24 41 -50 52 -39 7 8 -47 247 -60 264 -6 6
-21 12 -33 12 -18 0 -37 -23 -91 -112z m102 -3 c9 -36 -1 -54 -26 -48 -28 7
-32 17 -19 47 15 33 37 33 45 1z"/>
<path d="M4803 5635 c-3 -10 -1 -43 4 -74 6 -31 8 -60 6 -65 -3 -4 -36 22 -73
59 -114 113 -126 86 -74 -173 4 -17 10 -22 27 -20 24 3 28 29 13 101 -11 52 4
48 74 -19 43 -41 65 -55 82 -52 20 3 23 8 20 43 -2 22 -11 78 -21 125 -13 64
-21 86 -34 88 -9 2 -20 -4 -24 -13z"/>
<path d="M1554 5605 c-4 -10 -1 -21 7 -26 20 -12 34 -5 34 17 0 24 -33 31 -41
9z"/>
<path d="M2668 5613 c-30 -5 -68 -45 -68 -73 0 -31 38 -67 84 -80 55 -15 74
-33 56 -55 -21 -25 -77 -19 -96 10 -9 14 -25 25 -36 25 -15 0 -19 -6 -16 -27
4 -36 78 -76 123 -67 57 11 65 16 80 44 26 51 -6 94 -93 124 -25 9 -37 19 -37
32 0 27 41 30 74 7 57 -42 90 -31 57 20 -13 19 -81 52 -97 46 -2 -1 -16 -4
-31 -6z"/>
<path d="M4382 5565 c-64 -53 -60 -167 7 -212 63 -42 163 -23 201 39 29 49 22
106 -22 168 -15 21 -28 25 -86 28 -62 4 -71 2 -100 -23z m124 -23 c36 -25 58
-106 36 -138 -15 -23 -54 -36 -88 -29 -68 12 -87 127 -26 160 30 16 61 19 78
7z"/>
<path d="M4071 5551 c-13 -9 -12 -82 6 -210 l6 -43 72 5 c91 6 109 16 130 72
15 39 16 51 5 90 -20 70 -56 95 -138 95 -37 0 -73 -4 -81 -9z m135 -39 c24
-17 44 -59 44 -94 0 -51 -28 -78 -80 -78 -44 0 -44 0 -54 99 -3 33 -1 60 5 68
12 14 67 18 85 5z"/>
<path d="M3821 5543 l-44 -4 6 -121 c3 -66 9 -124 14 -129 5 -5 17 -7 26 -3
13 5 17 19 17 55 0 45 2 49 25 49 23 0 60 -33 99 -85 9 -13 20 -16 40 -11 26
6 26 7 9 34 -10 15 -25 34 -35 43 -23 21 -23 36 1 48 21 12 34 51 25 75 -15
38 -89 58 -183 49z m124 -64 c10 -29 -7 -42 -56 -43 -28 -1 -45 4 -52 16 -18
27 8 48 59 48 35 0 44 -4 49 -21z"/>
<path d="M3253 5525 c-38 -16 -62 -50 -74 -104 -22 -97 69 -173 172 -142 37
11 77 59 62 75 -13 12 -45 5 -61 -14 -46 -54 -110 -26 -119 52 -5 40 -2 50 20
72 31 31 67 33 92 6 19 -21 50 -26 60 -10 12 19 -5 46 -40 63 -43 20 -69 21
-112 2z"/>
<path d="M3548 5527 c-67 -30 -96 -91 -77 -162 15 -56 44 -83 95 -91 53 -8
107 9 139 44 20 22 25 37 25 81 0 68 -30 112 -88 129 -47 14 -59 14 -94 -1z
m115 -68 c20 -24 22 -70 6 -102 -17 -31 -28 -37 -76 -37 -32 0 -46 5 -57 22
-18 26 -21 80 -5 109 23 43 99 47 132 8z"/>
<path d="M2861 5361 c-12 -21 -5 -31 20 -31 24 0 33 18 19 35 -17 20 -27 19
-39 -4z"/>
<path d="M3387 5074 c-3 -4 1 -20 9 -36 27 -52 -10 -68 -40 -18 -12 22 -23 29
-35 25 -10 -3 -24 1 -31 10 -21 26 -28 17 -24 -30 4 -40 2 -45 -16 -45 -11 0
-23 -7 -26 -15 -4 -8 -10 -15 -15 -15 -5 0 -9 7 -9 15 0 8 -4 15 -10 15 -5 0
-10 7 -10 16 0 13 7 15 35 10 42 -8 48 9 9 26 -21 10 -27 9 -34 -2 -12 -19
-40 -19 -63 -1 -13 11 -15 16 -5 23 8 5 9 8 2 8 -27 0 -36 -28 -19 -59 12 -25
13 -31 2 -31 -8 0 -17 3 -21 8 -4 4 -18 7 -29 7 -17 0 -21 5 -19 22 2 17 -1
21 -12 17 -9 -3 -16 -10 -16 -15 0 -5 -10 -9 -23 -9 -27 0 -67 -26 -67 -44 0
-7 -8 -20 -18 -29 -17 -16 -20 -15 -40 3 -19 18 -22 18 -36 4 -9 -8 -16 -24
-16 -35 0 -23 4 -24 23 -5 17 18 42 4 34 -18 -7 -19 -53 -21 -64 -3 -4 6 -14
12 -20 13 -46 4 -46 3 -33 19 9 11 10 19 3 26 -14 14 -53 -10 -46 -28 3 -7 0
-20 -6 -27 -7 -8 -9 -25 -5 -40 4 -16 2 -26 -5 -26 -6 0 -11 8 -11 19 0 10 -7
24 -15 31 -12 10 -15 9 -15 -7 0 -10 5 -24 11 -30 8 -8 6 -16 -10 -29 -11 -10
-26 -33 -32 -51 -12 -38 -21 -41 -49 -13 -20 20 -20 20 -20 1 0 -11 5 -23 10
-26 6 -3 10 -17 10 -31 0 -20 -4 -24 -18 -20 -12 4 -23 -3 -35 -24 -10 -17
-23 -30 -28 -30 -6 0 -7 -9 -3 -22 8 -30 8 -30 26 -23 10 4 14 14 11 26 -6 21
7 25 25 7 8 -8 11 -4 9 18 -1 21 3 29 17 32 15 3 17 0 11 -14 -8 -21 -13 -43
-14 -61 -1 -7 -8 -13 -16 -13 -8 0 -15 -7 -15 -15 0 -20 -19 -19 -42 2 -23 21
-33 11 -18 -17 16 -29 10 -32 -39 -21 -35 7 -40 7 -31 -4 14 -17 -4 -55 -25
-55 -22 0 -18 -27 5 -33 13 -3 20 0 20 9 0 8 5 14 10 14 16 0 12 -46 -5 -60
-12 -10 -16 -9 -21 4 -7 19 -34 21 -34 3 0 -8 11 -24 24 -36 14 -13 22 -29 20
-36 -3 -7 7 -17 25 -23 35 -12 41 -31 12 -39 -11 -3 -21 -13 -24 -24 -3 -11
-14 -19 -26 -19 -24 0 -28 -15 -7 -23 8 -3 24 6 37 19 23 24 23 24 31 5 4 -12
13 -18 21 -15 9 3 29 -12 51 -39 40 -49 43 -57 21 -57 -8 0 -15 -7 -15 -15 0
-8 5 -15 10 -15 6 0 13 7 16 15 4 9 19 15 39 15 28 0 32 -3 28 -19 -3 -11 -15
-22 -26 -25 -89 -25 -175 -36 -300 -37 -78 -1 -149 -4 -159 -8 -15 -6 -17 -66
-20 -791 l-3 -785 154 -3 c84 -1 174 2 200 7 25 5 93 19 151 30 58 12 141 32
185 46 174 52 204 58 302 62 91 4 110 1 180 -23 43 -15 101 -44 130 -66 l52
-38 52 39 c129 98 302 116 526 57 70 -19 141 -39 157 -46 16 -6 90 -24 166
-40 115 -24 164 -29 313 -31 97 -2 178 -1 181 2 3 2 8 344 12 759 3 415 10
759 14 764 8 8 -7 45 -23 57 -4 3 -47 6 -95 7 -48 1 -129 4 -180 8 -83 6 -94
9 -101 28 -9 22 8 73 18 58 3 -4 21 -14 39 -21 17 -8 32 -20 32 -27 0 -8 5
-14 10 -14 14 0 13 13 -2 28 -9 9 -8 16 5 29 9 10 26 28 37 41 l21 23 -20 6
c-27 7 -27 23 -1 23 11 0 20 7 20 15 0 8 9 15 19 15 16 0 20 7 19 33 -1 44 -7
51 -29 31 -10 -9 -19 -12 -19 -6 0 6 4 13 9 16 5 3 11 20 14 38 4 18 9 47 13
65 5 24 1 36 -16 53 -17 17 -24 19 -36 9 -19 -15 -64 -21 -64 -8 0 17 -72 10
-86 -8 -12 -17 -13 -16 -14 4 0 12 5 25 12 29 7 5 5 12 -8 22 -18 14 -13 14
29 -3 24 -10 21 9 -7 39 -28 31 -34 32 -52 9 -11 -14 -15 -15 -22 -5 -5 7 -22
16 -38 21 -24 6 -28 12 -26 34 3 23 0 27 -22 27 -19 0 -26 5 -26 20 0 11 6 20
13 20 6 1 -6 7 -27 15 -22 8 -43 12 -47 9 -4 -2 -10 0 -14 6 -3 6 1 13 9 16
18 7 11 24 -10 24 -8 0 -14 -9 -14 -19 0 -10 -7 -22 -16 -25 -24 -9 -26 -8
-22 17 2 18 -2 23 -25 25 -16 2 -44 14 -62 27 -27 18 -32 25 -22 34 14 11 98
8 130 -4 10 -4 17 -3 17 4 0 5 -19 15 -42 22 -24 6 -51 15 -61 21 -14 7 -24 5
-38 -8 -17 -15 -25 -16 -50 -7 -26 10 -29 9 -29 -7 0 -10 5 -22 10 -25 14 -8
13 -25 -1 -25 -16 0 -38 31 -39 53 0 16 -15 21 -52 18 -10 -1 -18 3 -18 8 0 6
4 11 10 11 5 0 7 8 3 18 -11 30 -35 52 -60 52 -14 0 -23 6 -23 15 0 8 -4 15
-10 15 -5 0 -10 -4 -10 -10 0 -5 -18 -10 -40 -10 -30 0 -42 5 -52 23 -7 12
-11 31 -9 41 2 15 -1 17 -16 11 -29 -12 -78 -6 -125 15 -37 17 -44 18 -54 5
-16 -21 -20 -19 -68 20 -24 19 -46 32 -49 29z m-37 -109 c5 3 11 1 15 -5 4 -6
-7 -13 -25 -17 -25 -4 -31 -10 -27 -24 6 -24 -7 -33 -22 -15 -8 10 -9 16 -1
21 5 3 7 17 4 30 -9 37 5 50 28 26 10 -12 23 -19 28 -16z m-326 0 c-5 -22 -3
-25 16 -23 13 2 25 -3 27 -9 6 -16 -53 -18 -63 -2 -4 7 -17 1 -34 -16 -28 -27
-50 -27 -50 1 0 8 6 14 14 14 7 0 16 9 19 20 3 12 14 20 26 20 12 0 21 5 21
10 0 6 7 10 15 10 11 0 14 -7 9 -25z m484 -1 c-4 -3 -17 -2 -30 2 -22 7 -22 7
-3 14 20 8 44 -4 33 -16z m149 -10 c-3 -3 -12 -4 -19 -1 -8 3 -5 6 6 6 11 1
17 -2 13 -5z m35 -23 c-8 -4 -12 -15 -10 -22 2 -8 -1 -16 -7 -17 -5 -1 -11 9
-13 23 -3 20 1 25 20 25 16 0 19 -3 10 -9z m-504 -20 c3 -8 -1 -12 -9 -9 -7 2
-15 10 -17 17 -3 8 1 12 9 9 7 -2 15 -10 17 -17z m332 5 c0 -3 -4 -8 -10 -11
-5 -3 -10 -1 -10 4 0 6 5 11 10 11 6 0 10 -2 10 -4z m-495 -36 c3 -5 -1 -10
-9 -10 -9 0 -16 5 -16 10 0 6 4 10 9 10 6 0 13 -4 16 -10z m859 -5 c3 -8 1
-15 -4 -15 -6 0 -10 7 -10 15 0 8 2 15 4 15 2 0 6 -7 10 -15z m-154 -11 c0 -8
-5 -12 -10 -9 -6 4 -8 11 -5 16 9 14 15 11 15 -7z m-787 -19 c-3 -9 -8 -14
-10 -11 -3 3 -2 9 2 15 9 16 15 13 8 -4z m687 5 c0 -5 -4 -10 -9 -10 -6 0 -13
5 -16 10 -3 6 1 10 9 10 9 0 16 -4 16 -10z m-630 -10 c0 -5 -4 -10 -9 -10 -6
0 -13 5 -16 10 -3 6 1 10 9 10 9 0 16 -4 16 -10z m280 -20 c0 -5 -8 -10 -17
-10 -15 0 -16 2 -3 10 19 12 20 12 20 0z m56 -37 c-10 -10 -19 5 -10 18 6 11
8 11 12 0 2 -7 1 -15 -2 -18z m-396 -3 c0 -5 -7 -10 -15 -10 -8 0 -15 5 -15
10 0 6 7 10 15 10 8 0 15 -4 15 -10z m695 -9 c7 -12 -12 -24 -25 -16 -11 7 -4
25 10 25 5 0 11 -4 15 -9z m265 -17 c0 -17 -22 -14 -28 4 -2 7 3 12 12 12 9 0
16 -7 16 -16z m-1145 -4 c3 -5 -1 -10 -9 -10 -9 0 -16 5 -16 10 0 6 4 10 9 10
6 0 13 -4 16 -10z m-68 -6 c-3 -3 -12 -4 -19 -1 -8 3 -5 6 6 6 11 1 17 -2 13
-5z m130 0 c-3 -3 -12 -4 -19 -1 -8 3 -5 6 6 6 11 1 17 -2 13 -5z m97 -20 c9
-24 7 -28 -9 -14 -17 14 -20 30 -6 30 5 0 12 -7 15 -16z m196 6 c0 -5 -5 -10
-11 -10 -5 0 -7 5 -4 10 3 6 8 10 11 10 2 0 4 -4 4 -10z m630 -10 c0 -5 -4
-10 -10 -10 -5 0 -10 5 -10 10 0 6 5 10 10 10 6 0 10 -4 10 -10z m-83 -26 c-3
-3 -12 -4 -19 -1 -8 3 -5 6 6 6 11 1 17 -2 13 -5z m458 -4 c-3 -5 -10 -10 -16
-10 -5 0 -9 5 -9 10 0 6 7 10 16 10 8 0 12 -4 9 -10z m-1485 -15 c0 -8 -7 -15
-15 -15 -8 0 -15 7 -15 15 0 8 7 15 15 15 8 0 15 -7 15 -15z m820 -6 c0 -5 -4
-9 -10 -9 -5 0 -10 7 -10 16 0 8 5 12 10 9 6 -3 10 -10 10 -16z m138 1 c6 0
12 -4 12 -10 0 -5 -18 -10 -40 -10 -38 0 -49 8 -33 24 4 4 17 5 28 2 11 -3 26
-6 33 -6z m562 -14 c0 -3 -4 -8 -10 -11 -5 -3 -10 -1 -10 4 0 6 5 11 10 11 6
0 10 -2 10 -4z m-1410 -41 c0 -8 -7 -15 -15 -15 -8 0 -15 7 -15 15 0 8 7 15
15 15 8 0 15 -7 15 -15z m580 11 c0 -11 -19 -15 -25 -6 -3 5 1 10 9 10 9 0 16
-2 16 -4z m190 -6 c0 -5 -9 -10 -21 -10 -11 0 -17 5 -14 10 3 6 13 10 21 10 8
0 14 -4 14 -10z m107 -6 c-3 -3 -12 -4 -19 -1 -8 3 -5 6 6 6 11 1 17 -2 13 -5z
m341 -18 c3 -12 -1 -17 -10 -14 -7 3 -15 13 -16 22 -3 12 1 17 10 14 7 -3 15
-13 16 -22z m326 8 c9 -22 8 -24 -9 -24 -8 0 -15 9 -15 20 0 24 15 27 24 4z
m-1464 -25 c0 -5 -7 -9 -15 -9 -8 0 -15 7 -15 15 0 9 6 12 15 9 8 -4 15 -10
15 -15z m330 1 c0 -11 -4 -20 -9 -20 -14 0 -23 18 -16 30 10 17 25 11 25 -10z
m-215 -9 c7 -12 -12 -24 -25 -16 -11 7 -4 25 10 25 5 0 11 -4 15 -9z m975 -1
c0 -5 -4 -10 -9 -10 -6 0 -13 5 -16 10 -3 6 1 10 9 10 9 0 16 -4 16 -10z m191
-33 c-8 -8 -11 -5 -11 9 0 27 14 41 18 19 2 -9 -1 -22 -7 -28z m79 33 c0 -5
-2 -10 -4 -10 -3 0 -8 5 -11 10 -3 6 -1 10 4 10 6 0 11 -4 11 -10z m-1485 -20
c0 -7 -6 -15 -12 -17 -8 -3 -13 4 -13 17 0 13 5 20 13 18 6 -3 12 -11 12 -18z
m-57 -19 c3 -8 -1 -12 -9 -9 -7 2 -15 10 -17 17 -3 8 1 12 9 9 7 -2 15 -10 17
-17z m102 9 c0 -5 -4 -10 -10 -10 -5 0 -10 5 -10 10 0 6 5 10 10 10 6 0 10 -4
10 -10z m1620 -10 c0 -5 -12 -10 -26 -10 -14 0 -23 4 -19 10 3 6 15 10 26 10
10 0 19 -4 19 -10z m-80 -37 c0 -13 -3 -13 -16 -2 -13 10 -17 10 -24 -1 -5 -8
-15 -10 -26 -6 -16 7 -13 10 16 20 40 14 50 12 50 -11z m-332 -1 c2 -7 -3 -12
-12 -12 -9 0 -16 7 -16 16 0 17 22 14 28 -4z m-58 -2 c0 -5 -7 -10 -15 -10 -8
0 -15 5 -15 10 0 6 7 10 15 10 8 0 15 -4 15 -10z m505 -10 c3 -5 1 -10 -4 -10
-6 0 -11 5 -11 10 0 6 2 10 4 10 3 0 8 -4 11 -10z m-1745 -10 c12 -8 11 -10
-7 -10 -13 0 -23 5 -23 10 0 13 11 13 30 0z m465 0 c3 -5 -1 -10 -10 -10 -9 0
-13 5 -10 10 3 6 8 10 10 10 2 0 7 -4 10 -10z m585 -10 c0 -5 -2 -10 -4 -10
-3 0 -8 5 -11 10 -3 6 -1 10 4 10 6 0 11 -4 11 -10z m50 0 c0 -5 -5 -10 -11
-10 -5 0 -7 5 -4 10 3 6 8 10 11 10 2 0 4 -4 4 -10z m-1210 -10 c0 -5 -4 -10
-10 -10 -5 0 -10 5 -10 10 0 6 5 10 10 10 6 0 10 -4 10 -10z m340 0 c0 -5 -4
-10 -9 -10 -6 0 -13 5 -16 10 -3 6 1 10 9 10 9 0 16 -4 16 -10z m1652 -45 c-2
-14 -11 -25 -18 -25 -17 0 -18 14 -3 41 13 26 28 16 21 -16z m-1957 15 c3 -5
-1 -10 -10 -10 -9 0 -13 5 -10 10 3 6 8 10 10 10 2 0 7 -4 10 -10z m205 -11
c0 -5 -7 -9 -15 -9 -15 0 -20 12 -9 23 8 8 24 -1 24 -14z m1420 11 c0 -5 -4
-10 -10 -10 -5 0 -10 5 -10 10 0 6 5 10 10 10 6 0 10 -4 10 -10z m-1709 -47
c3 -23 2 -49 -1 -58 -6 -17 -7 -16 -24 0 -12 13 -14 20 -6 25 9 6 9 12 -1 27
-14 23 -5 57 14 51 6 -3 14 -23 18 -45z m1377 29 c2 -7 -2 -10 -12 -6 -9 3
-16 11 -16 16 0 13 23 5 28 -10z m768 7 c7 -12 -15 -31 -28 -23 -9 6 1 34 12
34 5 0 12 -5 16 -11z m-2001 -39 c3 -5 -1 -10 -10 -10 -9 0 -13 5 -10 10 3 6
8 10 10 10 2 0 7 -4 10 -10z m1935 0 c0 -5 -4 -10 -9 -10 -6 0 -13 5 -16 10
-3 6 1 10 9 10 9 0 16 -4 16 -10z m-293 -26 c-9 -9 -28 6 -21 18 4 6 10 6 17
-1 6 -6 8 -13 4 -17z m5 -46 c-9 -9 -12 -7 -12 12 0 19 3 21 12 12 9 -9 9 -15
0 -24z m303 12 c-3 -5 -13 -6 -21 -3 -12 4 -13 8 -3 14 15 9 32 2 24 -11z
m-185 0 c0 -5 -15 -10 -34 -10 -19 0 -38 5 -41 10 -4 6 10 10 34 10 23 0 41
-4 41 -10z m-731 -42 c-45 -27 -79 -33 -79 -14 0 10 9 16 25 16 14 0 29 8 35
20 9 17 14 18 30 8 18 -11 17 -13 -11 -30z m691 -3 c10 -13 9 -15 -9 -15 -12
0 -21 6 -21 15 0 8 4 15 9 15 5 0 14 -7 21 -15z m-1770 -5 c0 -5 -6 -10 -14
-10 -8 0 -18 5 -21 10 -3 6 3 10 14 10 12 0 21 -4 21 -10z m237 4 c-3 -3 -12
-4 -19 -1 -8 3 -5 6 6 6 11 1 17 -2 13 -5z m1810 -26 c-3 -8 -6 -5 -6 6 -1 11
2 17 5 13 3 -3 4 -12 1 -19z m-1276 -3 c-1 -15 -24 -12 -29 3 -3 9 2 13 12 10
10 -1 17 -7 17 -13z m310 -28 c-6 -6 -11 -24 -11 -40 0 -23 -7 -31 -36 -43
-42 -18 -64 -13 -64 15 0 10 -7 21 -15 25 -8 3 -15 16 -15 29 0 23 3 25 55 23
30 0 55 -5 55 -11 0 -5 5 -2 11 8 6 9 15 15 20 11 7 -4 7 -10 0 -17z m-236
-19 c-10 -48 -16 -53 -32 -32 -8 10 -23 19 -35 19 -12 0 -23 6 -26 14 -3 10 3
12 25 7 21 -5 34 -2 43 9 21 25 32 17 25 -17z m-867 5 c2 -8 -5 -13 -17 -13
-12 0 -21 6 -21 16 0 18 31 15 38 -3z m1199 1 c7 -18 -17 -38 -31 -24 -11 11
-1 40 14 40 6 0 13 -7 17 -16z m653 6 c0 -5 -2 -10 -4 -10 -3 0 -8 5 -11 10
-3 6 -1 10 4 10 6 0 11 -4 11 -10z m-63 -6 c-3 -3 -12 -4 -19 -1 -8 3 -5 6 6
6 11 1 17 -2 13 -5z m-457 -14 c0 -5 -9 -10 -20 -10 -11 0 -20 5 -20 10 0 6 9
10 20 10 11 0 20 -4 20 -10z m-402 -30 c37 -34 25 -100 -18 -100 -9 0 -27 12
-41 26 -24 25 -24 26 -4 40 11 8 20 20 21 27 3 34 11 35 42 7z m-583 0 c3 -5
-1 -10 -10 -10 -9 0 -13 5 -10 10 3 6 8 10 10 10 2 0 7 -4 10 -10z m455 -10
c0 -5 -7 -10 -15 -10 -8 0 -15 5 -15 10 0 6 7 10 15 10 8 0 15 -4 15 -10z
m440 -4 c0 -20 -22 -56 -35 -56 -8 0 -15 -4 -15 -10 0 -5 -10 -12 -23 -15 -20
-5 -57 -69 -57 -100 0 -6 -10 -21 -21 -35 l-21 -25 7 45 c6 49 26 112 37 120
3 3 8 18 10 35 2 21 10 31 28 36 29 8 90 11 90 5z m605 -16 c0 -7 -6 -15 -12
-17 -8 -3 -13 4 -13 17 0 13 5 20 13 18 6 -3 12 -11 12 -18z m190 10 c3 -5 1
-10 -4 -10 -6 0 -11 5 -11 10 0 6 2 10 4 10 3 0 8 -4 11 -10z m-1520 -26 c9
-18 13 -19 23 -8 23 25 103 -4 95 -34 -3 -13 6 -23 34 -38 29 -15 40 -29 50
-63 7 -24 17 -49 23 -56 12 -14 30 -66 36 -105 2 -14 7 -42 10 -63 3 -20 10
-40 15 -43 5 -3 9 -32 9 -64 0 -32 4 -62 10 -65 6 -4 7 -63 4 -156 -4 -109 -3
-154 6 -164 8 -10 10 -30 5 -57 -3 -24 -9 -77 -11 -118 -3 -41 -10 -79 -15
-85 -12 -13 -12 -332 1 -340 13 -8 13 -105 1 -105 -5 0 -22 5 -38 11 -127 49
-254 54 -398 16 -390 -106 -466 -120 -670 -121 l-130 -1 -2 762 c0 420 2 765
7 768 4 2 72 7 151 10 164 7 270 23 474 74 47 12 65 1 65 -40 0 -25 4 -29 29
-29 17 0 31 6 35 16 9 23 7 34 -4 34 -5 0 -10 -7 -10 -15 0 -8 -4 -15 -10 -15
-5 0 -10 5 -10 12 0 6 -9 22 -21 34 -17 18 -18 22 -5 27 8 3 20 -1 26 -9 17
-19 30 -18 30 4 0 13 9 18 32 20 17 2 36 7 42 11 11 10 60 19 86 17 8 -1 19
-11 25 -22z m868 11 c2 -9 -88 -64 -105 -65 -16 0 -7 31 10 37 9 4 28 15 41
25 25 19 51 21 54 3z m237 5 c8 -5 11 -12 8 -16 -10 -9 -38 3 -38 16 0 12 10
13 30 0z m-882 -24 c7 -33 -15 -42 -43 -16 -34 31 -32 42 7 38 23 -2 34 -9 36
-22z m-578 -4 c0 -4 -16 -14 -36 -21 -30 -11 -38 -11 -45 0 -6 11 1 15 29 20
20 3 40 7 45 8 4 0 7 -3 7 -7z m641 -13 c26 -18 28 -25 23 -57 -4 -26 1 -52
16 -86 14 -34 17 -53 10 -60 -5 -5 -10 -18 -10 -29 0 -10 -4 -15 -10 -12 -5 3
-10 16 -10 28 0 12 -9 36 -19 54 -11 17 -23 49 -26 70 -4 21 -11 50 -17 65 -9
24 -5 48 9 48 2 0 18 -9 34 -21z m274 11 c3 -5 0 -20 -7 -32 -16 -31 -20 -44
-25 -106 -8 -82 -25 -57 -29 41 -3 83 -2 88 19 97 29 12 35 12 42 0z m403 -22
l33 -33 20 24 c16 19 22 22 28 12 6 -9 19 -11 39 -6 17 3 39 2 49 -4 10 -6 41
-15 68 -21 28 -6 68 -16 90 -21 22 -6 56 -11 75 -13 19 -1 42 -6 50 -11 8 -6
87 -10 175 -11 l160 0 1 -685 c0 -376 -2 -722 -5 -769 l-6 -85 -140 1 c-176 2
-319 24 -500 79 -255 78 -394 90 -537 45 -35 -11 -65 -16 -68 -12 -6 8 6 293
15 370 5 36 3 57 -6 68 -9 11 -9 18 -1 26 15 15 16 84 2 93 -6 4 -10 67 -10
155 0 88 4 151 10 155 6 4 10 57 10 127 0 117 6 154 36 226 8 18 14 44 14 57
0 14 6 25 13 25 16 1 57 66 57 91 0 10 3 18 8 17 12 -4 56 24 75 49 16 20 28
23 90 24 40 1 64 3 54 6 -23 6 -17 25 14 40 36 19 50 16 87 -19z m372 -1 c23
-16 22 -16 -36 -13 -34 2 -74 11 -90 19 -29 16 -28 16 36 14 42 -2 74 -9 90
-20z m-962 -39 c14 -14 16 -78 3 -78 -20 0 -38 46 -32 83 2 11 15 9 29 -5z
m73 -98 c-2 -107 -6 -125 -22 -115 -10 7 -13 208 -2 219 19 19 25 -9 24 -104z"/>
<path d="M3030 4095 c-9 -11 -24 -15 -42 -13 -15 3 -28 2 -28 0 0 -9 35 -31
51 -32 23 0 55 38 42 51 -7 7 -14 5 -23 -6z"/>
<path d="M3120 4055 c0 -8 5 -15 10 -15 6 0 10 7 10 15 0 8 -4 15 -10 15 -5 0
-10 -7 -10 -15z"/>
<path d="M2425 3920 c-48 -9 -111 -35 -120 -51 -4 -6 -3 -15 3 -21 6 -6 8 -18
5 -27 -4 -13 -3 -13 5 -2 6 8 32 15 61 16 39 2 56 9 69 25 13 16 33 24 69 27
45 5 52 3 72 -23 26 -34 24 -65 -6 -79 -18 -7 -21 -15 -16 -35 6 -23 5 -24
-11 -11 -9 8 -15 20 -12 26 4 12 -34 25 -73 25 -9 0 -28 -22 -43 -48 l-27 -49
46 -41 45 -42 25 20 c13 10 37 22 53 25 33 7 39 34 18 79 -15 34 12 66 56 66
35 0 76 -24 76 -44 0 -8 7 -16 15 -20 8 -3 15 -11 15 -18 -1 -15 -48 -63 -70
-70 -8 -3 -15 -18 -16 -37 -3 -49 -38 -81 -91 -81 -57 0 -83 14 -83 45 l0 24
-25 -24 c-49 -50 -152 -21 -153 42 0 16 5 36 10 46 7 14 5 23 -7 35 -9 10 -26
32 -37 51 -18 31 -21 33 -30 17 -5 -10 -11 -42 -11 -71 -2 -46 2 -58 29 -92
44 -54 100 -90 168 -108 52 -13 66 -13 126 1 88 20 170 68 192 114 21 42 24
133 5 152 -8 7 -12 18 -10 25 7 20 -65 89 -109 106 -39 14 -153 39 -167 36 -3
-1 -24 -5 -46 -9z"/>
<path d="M2286 3783 c-6 -14 -5 -15 5 -6 7 7 10 15 7 18 -3 3 -9 -2 -12 -12z"/>
<path d="M2884 3535 c-9 -14 -15 -27 -13 -30 3 -2 12 10 21 26 21 36 15 39 -8
4z"/>
<path d="M3146 3507 c3 -10 9 -15 12 -12 3 3 0 11 -7 18 -10 9 -11 8 -5 -6z"/>
<path d="M3146 3444 c-4 -9 -4 -19 -1 -22 2 -3 7 3 11 12 4 9 4 19 1 22 -2 3
-7 -3 -11 -12z"/>
<path d="M2886 3395 c4 -8 11 -15 16 -15 6 0 5 6 -2 15 -7 8 -14 15 -16 15 -2
0 -1 -7 2 -15z"/>
<path d="M3270 3403 c-8 -3 -28 -18 -45 -33 -30 -28 -296 -231 -342 -261 -13
-9 -32 -25 -42 -35 -10 -11 -48 -46 -86 -79 -38 -33 -90 -79 -116 -103 -26
-24 -80 -68 -120 -99 -41 -30 -76 -58 -79 -62 -3 -3 -27 -22 -53 -41 -27 -19
-70 -52 -97 -72 -27 -21 -56 -38 -64 -38 -52 0 -59 -29 -17 -71 34 -33 71 -39
71 -11 0 10 17 33 38 50 20 18 44 38 52 46 8 7 53 40 100 71 47 32 103 74 125
95 22 20 67 52 100 70 33 19 71 41 85 51 14 9 66 43 115 74 50 32 115 80 145
105 30 26 107 86 170 133 170 127 170 127 170 141 0 16 -50 62 -75 69 -11 3
-27 3 -35 0z m45 -34 c4 -6 -1 -17 -11 -25 -11 -7 -43 -33 -73 -56 -116 -92
-172 -130 -186 -124 -8 3 -15 10 -15 15 0 12 57 61 130 111 19 13 53 39 74 57
40 34 70 42 81 22z m-322 -239 c-3 -10 -14 -22 -26 -26 -11 -3 -30 -15 -41
-25 -11 -11 -27 -19 -35 -19 -10 1 -3 11 18 28 19 15 42 35 50 45 21 23 40 22
34 -3z m-124 -104 c10 -12 7 -18 -16 -33 -15 -9 -50 -33 -78 -53 -60 -43 -125
-83 -125 -77 0 16 176 175 196 176 6 1 17 -5 23 -13z"/>
<path d="M3070 3360 c-9 -6 -10 -10 -3 -10 6 0 15 5 18 10 8 12 4 12 -15 0z"/>
<path d="M2941 3356 c2 -2 18 -6 34 -10 22 -5 26 -4 15 4 -14 9 -59 15 -49 6z"/>
<path d="M3990 4030 c0 -5 12 -10 28 -9 24 0 25 1 7 9 -27 12 -35 12 -35 0z"/>
<path d="M4595 3910 c-3 -5 3 -14 14 -19 26 -14 44 -14 39 1 -5 15 -46 29 -53
18z"/>
<path d="M4367 3754 c-4 -4 -7 -14 -7 -23 0 -11 3 -12 11 -4 6 6 10 16 7 23
-2 6 -7 8 -11 4z"/>
<path d="M4684 3723 c-16 -50 -29 -79 -41 -91 -7 -7 -13 -11 -13 -7 0 3 -12
-1 -27 -8 -26 -13 -73 -13 -130 -1 -15 3 -23 12 -23 25 0 14 -5 19 -14 16 -7
-3 -28 4 -46 15 -29 17 -34 18 -48 4 -12 -12 -13 -18 -3 -29 13 -17 102 -50
181 -67 66 -15 91 -27 87 -42 -1 -6 4 -13 11 -15 8 -3 12 7 12 31 0 23 7 43
20 56 11 11 20 23 20 28 0 4 9 18 20 32 11 14 20 33 20 42 0 24 -19 33 -26 11z"/>
<path d="M4188 3628 c-25 -21 -58 -75 -58 -95 0 -10 3 -14 8 -8 4 6 23 18 42
27 29 14 34 22 36 52 1 39 -4 43 -28 24z"/>
<path d="M4338 3593 c7 -3 16 -2 19 1 4 3 -2 6 -13 5 -11 0 -14 -3 -6 -6z"/>
<path d="M4546 3530 c-17 -6 -18 -7 -3 -13 9 -3 19 -2 23 4 9 15 2 18 -20 9z"/>
<path d="M4099 3433 c-1 -5 -2 -23 -4 -41 -2 -27 0 -30 11 -21 16 13 19 69 4
69 -5 0 -10 -3 -11 -7z"/>
<path d="M4650 3395 c0 -8 4 -15 10 -15 5 0 7 7 4 15 -4 8 -8 15 -10 15 -2 0
-4 -7 -4 -15z"/>
<path d="M4645 3362 c-13 -9 -45 -78 -45 -96 0 -13 -19 -26 -49 -32 -8 -1 -18
-9 -22 -16 -6 -10 -13 -10 -26 -2 -14 9 -20 8 -29 -4 -14 -19 -44 -9 -51 18
-7 26 -23 26 -23 0 0 -11 -7 -20 -15 -20 -8 0 -15 -4 -15 -9 0 -12 53 -19 120
-16 94 3 180 77 180 155 0 30 -6 36 -25 22z"/>
<path d="M4110 3334 c0 -23 36 -57 90 -84 33 -17 64 -30 70 -30 24 0 -4 21
-66 51 -35 17 -71 41 -79 52 -8 12 -15 17 -15 11z"/>
<path d="M4308 3213 c6 -2 18 -2 25 0 6 3 1 5 -13 5 -14 0 -19 -2 -12 -5z"/>
<path d="M3801 3099 c4 -53 4 -54 -35 -74 -47 -25 -65 -64 -45 -101 7 -13 17
-24 23 -24 7 0 43 -22 81 -50 38 -27 73 -50 77 -50 4 0 30 -17 57 -37 28 -21
76 -47 108 -59 144 -52 177 -59 276 -59 92 0 100 2 118 24 28 34 24 50 -26 97
-25 23 -45 49 -45 57 0 9 -21 31 -47 48 -51 34 -102 87 -103 105 0 6 -11 17
-25 24 -21 11 -34 10 -97 -10 -40 -12 -77 -26 -83 -31 -27 -26 -81 5 -70 41 7
22 11 22 79 17 87 -6 103 0 86 34 -19 36 -42 59 -52 53 -6 -4 -20 -2 -31 4
-40 18 -108 33 -179 39 l-70 6 3 -54z m193 3 c2 -4 1 -13 -3 -20 -4 -8 -11 -5
-19 8 -10 16 -10 20 2 20 8 0 17 -4 20 -8z m-74 -92 c0 -5 -6 -10 -14 -10 -8
0 -18 5 -21 10 -3 6 3 10 14 10 12 0 21 -4 21 -10z"/>
<path d="M3585 5040 c-3 -5 1 -10 10 -10 9 0 13 5 10 10 -3 6 -8 10 -10 10 -2
0 -7 -4 -10 -10z"/>
<path d="M5880 5043 c-56 -8 -70 -14 -85 -37 -25 -38 -6 -67 63 -100 34 -16
63 -35 66 -43 8 -21 -3 -40 -27 -47 -38 -10 -48 -7 -78 25 l-29 31 0 -30 c0
-29 2 -31 55 -37 84 -11 128 7 140 55 8 35 -23 73 -74 90 -54 17 -78 44 -61
65 16 19 69 19 90 0 16 -14 18 -14 23 -1 4 9 3 17 -1 19 -15 8 -58 14 -82 10z"/>
<path d="M1093 4905 c-18 -8 -38 -25 -44 -39 -18 -39 6 -64 96 -100 56 -22 81
-37 83 -50 5 -26 -24 -46 -67 -46 -40 1 -62 14 -80 48 -18 33 -29 27 -29 -17
l-1 -39 69 -7 c38 -4 83 -4 101 0 65 14 108 85 72 117 -10 8 -50 27 -90 42
-75 28 -86 39 -71 69 6 12 21 17 53 17 35 0 48 -5 64 -26 22 -28 34 -19 27 21
-3 18 -12 20 -77 22 -48 2 -86 -2 -106 -12z"/>
<path d="M2596 4852 c-9 -15 4 -42 20 -42 18 0 18 11 1 35 -9 11 -16 14 -21 7z"/>
<path d="M2557 4814 c-13 -13 -7 -24 14 -24 11 0 19 5 17 12 -5 14 -22 21 -31
12z"/>
<path d="M5868 4718 c-8 -13 -27 -50 -43 -83 -15 -33 -37 -72 -47 -87 l-19
-28 31 0 c19 0 29 4 25 10 -4 6 1 22 9 35 13 20 25 25 61 25 46 0 65 -16 65
-57 0 -16 8 -19 50 -20 54 -1 58 2 36 26 -8 9 -32 57 -54 106 -36 82 -42 90
-69 93 -22 2 -34 -3 -45 -20z m36 -60 c23 -32 20 -47 -10 -54 -37 -9 -50 8
-34 45 15 37 24 38 44 9z"/>
<path d="M4560 4504 c1 -16 28 -45 34 -36 3 5 -3 17 -14 27 -11 10 -20 14 -20
9z"/>
<path d="M1040 4470 c0 -3 6 -12 12 -18 19 -19 11 -192 -9 -215 -16 -17 -10
-17 128 -15 l144 3 3 28 c4 32 -8 35 -26 7 -11 -18 -21 -21 -70 -18 -52 3 -57
5 -66 31 -18 51 26 78 85 53 13 -6 18 0 21 23 6 39 2 42 -30 25 -33 -17 -54
-18 -70 -2 -19 19 -15 66 6 77 22 12 79 6 97 -9 16 -13 28 1 19 24 -5 14 -24
16 -125 14 -66 -1 -119 -5 -119 -8z"/>
<path d="M5786 4423 c13 -29 17 -160 4 -182 -10 -19 -8 -21 17 -21 l29 0 -4
70 c-3 53 -1 70 9 70 7 0 45 -34 84 -75 72 -75 115 -96 115 -57 1 34 10 181
12 194 2 8 -9 14 -25 16 -26 3 -27 2 -20 -25 11 -41 10 -106 -3 -110 -6 -2
-43 28 -82 67 -62 60 -77 70 -108 70 -31 0 -35 -3 -28 -17z"/>
<path d="M4686 4353 c-12 -12 -6 -33 9 -33 8 0 15 6 15 14 0 17 -14 28 -24 19z"/>
<path d="M2346 4294 c-9 -23 -8 -24 13 -24 28 0 35 17 12 29 -15 8 -20 7 -25
-5z"/>
<path d="M4712 4240 c-16 -27 -15 -30 8 -30 11 0 20 4 20 9 0 5 3 16 6 25 9
23 -19 20 -34 -4z"/>
<path d="M4680 4175 c0 -9 5 -15 11 -13 6 2 11 8 11 13 0 5 -5 11 -11 13 -6 2
-11 -4 -11 -13z"/>
<path d="M2410 4171 c0 -5 9 -19 20 -32 l19 -24 1 22 c0 12 -9 27 -20 33 -11
6 -20 7 -20 1z"/>
<path d="M1112 4041 c-44 -12 -72 -39 -72 -71 0 -35 24 -56 92 -79 84 -29 100
-39 96 -64 -7 -50 -117 -48 -146 4 -23 40 -39 37 -37 -8 l3 -38 58 -7 c120
-14 193 17 194 83 0 34 -13 44 -85 69 -88 30 -119 67 -76 90 41 21 111 3 111
-29 0 -6 5 -11 10 -11 6 0 10 14 10 30 0 23 -5 30 -19 30 -10 0 -38 2 -62 4
-24 3 -59 1 -77 -3z"/>
<path d="M4912 3945 c3 -4 30 -22 60 -40 29 -19 58 -39 65 -44 14 -12 6 -1520
-8 -1535 -20 -21 -548 -4 -759 25 -172 23 -322 32 -442 25 -134 -8 -161 -18
-169 -61 -4 -19 -13 -20 -189 -20 l-185 0 -5 30 c-9 49 -38 56 -236 56 -185
-1 -216 -3 -384 -28 -78 -12 -185 -17 -420 -17 l-315 -1 2 210 c2 116 3 460 3
766 l0 556 45 29 c25 15 45 30 45 33 0 5 -172 2 -176 -3 -1 0 -4 -379 -7 -840
l-4 -839 286 7 c274 6 325 8 541 20 52 3 191 9 307 13 l213 6 26 -27 27 -26
251 2 251 3 10 24 c10 23 11 23 125 17 63 -3 313 -15 555 -26 242 -11 497 -23
566 -26 98 -5 128 -4 134 6 4 7 10 388 13 846 l5 834 -87 0 c-61 0 -97 5 -119
16 -18 9 -29 13 -25 9z m-3027 -1645 c-3 -5 -11 -10 -16 -10 -6 0 -7 5 -4 10
3 6 11 10 16 10 6 0 7 -4 4 -10z"/>
<path d="M5797 3820 c9 -18 5 -122 -6 -172 -9 -36 -8 -38 18 -38 26 0 26 1 26
67 0 38 5 68 11 70 6 2 21 -19 33 -46 13 -26 33 -61 46 -77 l22 -28 39 74 c21
41 44 76 51 78 16 4 27 -58 19 -108 l-6 -38 43 2 c37 1 41 4 37 21 -3 11 -5
61 -5 112 l0 91 -30 5 c-39 6 -50 -4 -86 -74 -44 -89 -56 -88 -104 6 -32 64
-38 69 -83 70 -25 0 -31 -3 -25 -15z"/>
<path d="M1116 3586 c-126 -47 -135 -169 -16 -228 89 -45 235 -25 293 40 27
29 34 96 13 127 -40 61 -199 95 -290 61z m150 -12 c41 -19 59 -67 49 -129 -8
-56 -31 -84 -75 -91 -51 -8 -88 10 -105 51 -38 89 4 180 83 184 8 1 29 -6 48
-15z"/>
<path d="M5917 3515 c11 -31 5 -176 -8 -191 -6 -8 -10 -14 -8 -15 20 -4 119
-6 119 -3 0 3 -7 15 -15 28 -11 16 -14 42 -11 97 2 41 7 81 10 89 5 12 -3 15
-44 15 -46 0 -49 -2 -43 -20z"/>
<path d="M5833 3225 c-54 -23 -73 -50 -73 -102 1 -86 54 -123 177 -123 43 0
84 4 92 9 9 6 15 28 17 55 l1 46 -49 0 c-43 0 -49 -2 -39 -14 7 -8 11 -30 9
-48 -3 -29 -7 -33 -36 -36 -25 -3 -39 3 -62 27 -26 25 -30 37 -30 81 0 44 4
56 29 81 39 39 92 40 126 3 l25 -27 0 32 0 31 -77 0 c-43 -1 -92 -7 -110 -15z"/>
<path d="M1030 3151 c0 -5 6 -11 13 -13 8 -3 13 -34 15 -95 4 -82 2 -93 -17
-112 -12 -12 -21 -22 -21 -24 0 -1 36 -2 79 -2 77 0 78 0 65 20 -8 11 -14 34
-14 52 0 50 33 44 89 -17 44 -48 48 -50 111 -55 46 -4 59 -3 44 4 -27 12 -104
91 -104 107 0 6 11 19 25 28 25 17 34 57 17 83 -12 19 -59 33 -110 33 l-47 0
33 -20 c26 -16 32 -26 32 -54 0 -18 -6 -38 -12 -44 -21 -16 -52 -22 -67 -13
-18 12 -19 94 -1 115 11 14 4 16 -59 16 -39 0 -71 -4 -71 -9z"/>
<path d="M5776 2941 c-4 -5 -2 -12 4 -16 5 -3 10 -37 10 -75 0 -38 4 -80 10
-94 13 -34 59 -56 121 -56 45 0 55 4 85 34 32 32 34 38 34 101 0 36 5 75 10
86 10 17 7 19 -27 19 -29 0 -34 -3 -25 -12 7 -7 12 -41 12 -80 0 -60 -3 -72
-25 -93 -31 -32 -77 -33 -105 -3 -16 18 -20 35 -20 93 0 42 5 76 12 83 9 9 4
12 -24 12 -20 0 -43 3 -51 6 -8 3 -18 1 -21 -5z"/>
<path d="M1203 2692 c22 -24 24 -160 3 -200 l-14 -27 69 0 c58 0 68 2 62 15
-4 8 -9 55 -11 103 -3 74 0 92 14 108 17 19 15 19 -61 19 -75 0 -77 -1 -62
-18z"/>
<path d="M5823 2641 c-43 -5 -51 -9 -43 -21 15 -23 12 -151 -4 -182 l-15 -28
105 0 c85 0 106 3 111 15 8 22 -4 30 -21 16 -8 -7 -32 -11 -53 -9 -37 3 -38 4
-41 46 l-3 44 38 -4 c28 -2 39 1 41 13 2 13 -5 16 -35 15 -36 -1 -38 1 -41 33
-5 50 41 70 80 34 17 -15 18 -15 18 5 0 12 -6 22 -14 22 -7 0 -26 2 -42 4 -16
2 -52 1 -81 -3z"/>
<path d="M5780 2314 c12 -31 13 -106 1 -155 l-8 -36 60 -7 c100 -10 134 -8
141 10 9 23 1 28 -22 15 -34 -18 -80 -13 -92 10 -12 22 -9 142 4 172 7 15 2
17 -43 17 -50 0 -50 0 -41 -26z"/>
<path d="M3670 2159 c-25 -6 -52 -17 -61 -25 -8 -8 -19 -14 -24 -14 -4 0 -32
-18 -62 -40 -54 -42 -97 -98 -109 -144 -3 -15 -10 -29 -15 -32 -5 -3 -35 7
-67 22 -80 38 -177 44 -252 14 -77 -30 -145 -99 -162 -162 -13 -52 -38 -77
-55 -55 -6 6 -16 40 -23 75 -10 48 -17 62 -31 62 -15 0 -16 -4 -7 -32 6 -18
12 -49 13 -68 1 -20 7 -46 14 -57 6 -12 11 -35 11 -52 0 -16 5 -33 10 -36 16
-10 12 -42 -6 -49 -45 -17 -70 17 -34 46 24 19 25 18 -28 34 -8 2 -10 12 -6
29 5 21 3 25 -17 25 -29 0 -119 -106 -119 -138 0 -34 22 -72 41 -72 14 0 49
-48 49 -67 0 -1 -19 -4 -42 -4 -79 -2 -103 -12 -103 -39 l0 -25 120 -3 120 -3
0 -112 0 -112 108 -3 c91 -2 107 0 107 13 0 12 -14 15 -75 15 -61 0 -76 3 -84
18 -16 30 2 41 74 44 54 2 70 6 70 18 0 12 -17 16 -75 20 -73 5 -77 7 -71 40
0 5 36 10 79 12 73 3 77 4 75 26 -2 19 2 22 30 22 l32 0 1 -98 c0 -134 -1
-132 81 -132 37 0 84 5 103 10 86 24 93 155 10 192 -16 7 -30 16 -30 20 0 5
33 8 73 8 l74 0 -1 -93 c-1 -65 3 -99 12 -110 22 -26 109 -41 159 -28 68 19
74 30 72 135 l-2 91 53 3 c82 5 90 -3 41 -44 -35 -30 -41 -41 -41 -75 0 -29 7
-47 29 -71 28 -32 32 -33 104 -33 60 0 79 4 96 19 12 11 21 23 21 28 0 19 -31
19 -56 -1 -73 -57 -170 9 -130 88 24 46 79 55 130 22 30 -20 56 -18 56 5 0 7
-13 21 -29 30 -17 10 -28 21 -25 26 7 11 165 10 183 -1 10 -7 6 -13 -17 -26
-32 -19 -62 -63 -62 -90 0 -9 7 -32 16 -51 13 -27 26 -37 69 -50 159 -50 271
77 160 182 -19 17 -31 34 -28 38 4 3 39 6 80 6 58 0 73 3 73 15 0 10 -11 15
-37 16 -21 1 -65 3 -98 4 -168 7 -162 6 -135 16 15 5 -62 6 -182 2 -116 -3
-208 -2 -208 3 1 22 21 38 66 50 33 8 41 13 24 14 l-25 1 25 14 c14 8 33 14
43 15 9 0 36 9 60 19 23 11 68 27 99 35 56 16 85 36 52 36 -13 0 -14 3 -4 15
7 8 18 15 24 15 20 1 92 39 74 40 -23 0 -23 0 14 67 64 117 32 261 -77 346
-84 65 -154 89 -270 93 -55 2 -120 -2 -145 -7z m275 -74 c120 -45 185 -127
185 -233 0 -97 -73 -187 -184 -228 -90 -32 -210 -33 -293 -3 -64 25 -142 92
-167 144 -23 47 -21 139 4 190 64 133 283 195 455 130z m-659 -204 c50 -23
111 -82 120 -116 10 -41 -5 -93 -37 -130 -38 -43 -142 -80 -201 -72 -56 8 -61
16 -41 70 17 46 17 47 -4 69 -18 18 -24 19 -37 8 -11 -8 -20 -9 -28 -2 -7 5
-28 13 -45 17 -44 9 -47 18 -23 64 21 43 67 82 115 99 49 17 136 14 181 -7z
m-526 -236 c0 -28 -17 -42 -33 -26 -7 7 -7 18 1 36 14 30 32 24 32 -10z m171
-7 c44 -34 45 -34 52 -7 6 24 25 21 41 -5 8 -14 8 -20 0 -23 -7 -2 -10 -13 -7
-23 7 -27 -47 -80 -81 -80 -29 0 -34 20 -11 44 20 20 20 22 -20 69 -19 22 -35
47 -35 54 0 16 9 12 61 -29z m581 -4 c56 -46 157 -87 237 -96 35 -4 38 -26 4
-33 -15 -4 -43 -13 -62 -21 -19 -8 -74 -28 -123 -45 -88 -29 -90 -29 -322 -29
-128 0 -280 3 -338 6 l-105 7 0 28 c0 19 6 29 19 32 14 4 18 13 16 34 -2 23 1
29 20 31 22 3 23 3 26 -63 1 -18 8 -20 76 -21 101 0 120 4 120 28 0 19 4 20
55 13 126 -15 238 26 300 112 16 23 34 42 39 42 4 1 22 -10 38 -25z m-802 -39
c0 -14 -4 -25 -10 -25 -5 0 -10 4 -10 9 0 5 -3 16 -6 25 -4 11 -1 16 10 16 10
0 16 -9 16 -25z m80 -57 c0 -15 -19 -8 -29 11 -14 25 0 37 16 15 7 -10 13 -21
13 -26z m-50 -24 c0 -8 -4 -12 -10 -9 -5 3 -10 13 -10 21 0 8 5 12 10 9 6 -3
10 -13 10 -21z m857 -249 c1 -102 -6 -115 -60 -115 -66 0 -71 8 -77 105 -3 48
-3 89 0 91 2 3 34 4 70 2 l65 -3 2 -80z m-319 12 c21 -22 21 -83 -1 -104 -11
-12 -34 -17 -69 -18 l-53 0 -3 59 c-4 85 -1 89 59 84 28 -3 58 -13 67 -21z
m945 -4 c13 -12 17 -28 15 -57 -3 -37 -7 -43 -42 -60 -36 -17 -43 -18 -80 -5
-100 35 -59 159 49 144 22 -3 48 -13 58 -22z"/>
<path d="M4185 1670 c-8 -13 5 -13 25 0 13 8 13 10 -2 10 -9 0 -20 -4 -23 -10z"/>
<path d="M4188 1563 c6 -2 18 -2 25 0 6 3 1 5 -13 5 -14 0 -19 -2 -12 -5z"/>
<path d="M4015 1520 c-7 -12 12 -12 40 0 18 8 17 9 -7 9 -15 1 -30 -3 -33 -9z"/>
<path d="M3908 1493 c7 -3 16 -2 19 1 4 3 -2 6 -13 5 -11 0 -14 -3 -6 -6z"/>
<path d="M3845 1480 l-20 -9 20 0 c11 0 27 4 35 9 13 9 13 10 0 9 -8 0 -24 -4
-35 -9z"/>
<path d="M4248 1483 c7 -3 16 -2 19 1 4 3 -2 6 -13 5 -11 0 -14 -3 -6 -6z"/>
<path d="M5183 1093 c-24 -8 -43 -21 -43 -29 0 -7 18 -52 41 -99 28 -58 47
-85 58 -85 28 0 30 9 15 46 l-15 35 33 14 c66 27 89 75 53 111 -28 28 -75 30
-142 7z m101 -29 c20 -8 20 -18 0 -38 -23 -24 -71 -21 -79 5 -11 32 33 51 79
33z"/>
<path d="M5011 1036 c-41 -11 -76 -26 -78 -33 -4 -11 54 -170 68 -187 4 -4 45
1 91 11 68 16 83 23 83 39 0 21 -9 22 -78 3 -41 -12 -49 -11 -63 3 -22 22 -11
35 44 51 60 18 65 44 7 38 -82 -7 -89 -6 -93 11 -2 12 11 21 50 33 68 22 68
23 61 40 -6 18 1 18 -92 -9z"/>
<path d="M4750 968 c-25 -5 -48 -13 -52 -17 -7 -6 39 -162 55 -188 17 -27 109
-6 160 36 42 35 6 149 -55 170 -36 13 -46 13 -108 -1z m85 -34 c20 -8 45 -56
45 -87 0 -30 -16 -44 -55 -49 -24 -2 -32 2 -43 25 -22 44 -27 98 -11 108 17
10 41 11 64 3z"/>
<path d="M4543 908 c-5 -7 -15 -25 -23 -40 -17 -36 -29 -35 -65 2 -26 27 -75
42 -75 22 0 -4 22 -30 50 -56 33 -32 51 -58 56 -81 13 -69 61 -72 50 -4 -5 32
0 51 24 100 16 34 30 63 30 65 0 10 -38 3 -47 -8z"/>
</g>
</svg>
